<!-- Generated by IcoMoon.io -->
<svg version="1.1" xmlns="http://www.w3.org/2000/svg" width="1024" height="1024" viewBox="0 0 1024 1024">
<g id="icomoon-ignore">
</g>
<path fill="#fafafa" stroke-linejoin="round" stroke-linecap="round" stroke-miterlimit="4" stroke-width="102.4" stroke="#fafafa" d="M765.44 765.44c-72.934 55.593-161.741 86.395-253.44 87.895-298.664 0-469.331-341.335-469.331-341.335 53.073-98.906 126.683-185.318 215.893-253.44M422.402 180.906c29.369-6.874 59.438-10.311 89.598-10.24 298.67 0 469.335 341.334 469.335 341.334-25.897 48.451-56.786 94.070-92.16 136.105M602.455 602.455c-11.72 12.575-25.851 22.661-41.549 29.655-15.703 6.999-32.65 10.757-49.839 11.064-17.186 0.302-34.258-2.862-50.196-9.298s-30.416-16.020-42.571-28.175c-12.154-12.155-21.736-26.629-28.174-42.568s-9.599-33.014-9.296-50.196c0.303-17.189 4.065-34.138 11.061-49.84s17.082-29.832 29.659-41.551"></path>
<path fill="none" stroke-linejoin="round" stroke-linecap="round" stroke-miterlimit="4" stroke-width="102.4" stroke="#fafafa" d="M42.669 42.667l938.666 938.668"></path>
</svg>
